<svg xmlns="http://www.w3.org/2000/svg" viewBox="0 0 200 200">
  <ellipse cx="100" cy="110" rx="60" ry="65" fill="#1a1a1a" stroke="#000" stroke-width="2"/>
  <circle cx="100" cy="60" r="45" fill="#1a1a1a" stroke="#000" stroke-width="2"/>
  <polygon points="65,45 55,10 80,35" fill="#1a1a1a" stroke="#000" stroke-width="2"/>
  <polygon points="135,45 145,10 120,35" fill="#1a1a1a" stroke="#000" stroke-width="2"/>
  <polygon points="65,45 60,20 78,38" fill="#ffb6c1"/>
  <polygon points="135,45 140,20 122,38" fill="#ffb6c1"/>
  <ellipse cx="80" cy="55" rx="12" ry="14" fill="#fbbf24"/><ellipse cx="120" cy="55" rx="12" ry="14" fill="#fbbf24"/>
  <circle cx="80" cy="57" r="5" fill="#000"/><circle cx="120" cy="57" r="5" fill="#000"/>
  <ellipse cx="100" cy="75" rx="8" ry="6" fill="#f472b6"/>
  <path d="M 92 82 Q 100 90 108 82" stroke="#000" fill="none" stroke-width="2"/>
  <g transform="translate(100, 35) scale(0.8)">
    <rect x="-12" y="-12" width="24" height="24" fill="none" stroke="#9ca3af" stroke-width="3"/>
    <rect x="-6" y="-6" width="12" height="12" fill="none" stroke="#9ca3af" stroke-width="2"/>
    <rect x="0" y="0" width="6" height="6" fill="#9ca3af"/>
  </g>
  <path d="M 60 140 Q 100 130 140 140 L 145 180 Q 100 185 55 180 Z" fill="#10b981" stroke="#000" stroke-width="2"/>
  <path d="M 45 130 Q 30 160 40 200 L 70 200 Q 75 170 80 150" fill="#3b82f6" stroke="#000" stroke-width="2" opacity="0.9"/>
  <path d="M 155 130 Q 170 160 160 200 L 130 200 Q 125 170 120 150" fill="#3b82f6" stroke="#000" stroke-width="2" opacity="0.9"/>
  <ellipse cx="140" cy="180" rx="12" ry="8" fill="#fbbf24" opacity="0.8"/>
  <line x1="70" y1="75" x2="40" y2="70" stroke="#000" stroke-width="1"/><line x1="70" y1="80" x2="40" y2="80" stroke="#000" stroke-width="1"/>
  <line x1="130" y1="75" x2="160" y2="70" stroke="#000" stroke-width="1"/><line x1="130" y1="80" x2="160" y2="80" stroke="#000" stroke-width="1"/>
</svg>